<svg width="32" height="32" viewBox="0 0 32 32" fill="none" xmlns="http://www.w3.org/2000/svg">
<g clip-path="url(#clip0_82801_314)">
<path d="M31.6591 16C31.6591 24.8889 24.5265 32 15.8921 32C7.25782 32 0 24.8889 0 16C0 7.11112 7.13268 0 15.767 0C24.4013 0 31.6591 7.11112 31.6591 16Z" fill="url(#paint0_linear_82801_314)"/>
<path d="M4.66955 17.0691C4.67566 17.0162 4.71317 16.979 4.76043 16.979C4.80598 16.979 4.84372 17.0162 4.85079 17.0688L5.04712 18.3458L4.85079 19.6011C4.84349 19.6537 4.80621 19.6903 4.76043 19.6903C4.71314 19.6903 4.67566 19.6534 4.66955 19.6006L4.50391 18.3458L4.66955 17.0691Z" fill="white"/>
<path d="M5.59817 16.189C5.64591 16.189 5.68464 16.2269 5.69244 16.2817L5.94551 18.346L5.69219 20.3651C5.68441 20.4198 5.64566 20.4578 5.59817 20.4578C5.54995 20.4578 5.51024 20.4187 5.5039 20.3646L5.28125 18.346L5.5039 16.2817C5.51047 16.2281 5.55018 16.189 5.59817 16.189Z" fill="white"/>
<path d="M9.03078 14.5498C9.03515 14.4534 9.11074 14.3774 9.20209 14.3774C9.2929 14.3774 9.36815 14.4534 9.37357 14.5498L9.57401 18.3476L9.37357 20.8022V20.8015C9.36823 20.8977 9.2929 20.9736 9.20209 20.9736C9.11074 20.9736 9.03541 20.8979 9.03078 20.802L8.85352 18.3476L9.03078 14.5498Z" fill="white"/>
<path d="M7.25248 15.83C7.2581 15.7541 7.31534 15.6973 7.38549 15.6973C7.45491 15.6973 7.51215 15.7541 7.51826 15.8295L7.74528 18.3464L7.51826 20.781C7.51215 20.8564 7.45491 20.9133 7.38549 20.9133C7.31532 20.9133 7.25783 20.8564 7.25248 20.781L7.05273 18.3464L7.25248 15.83Z" fill="white"/>
<path d="M11.2557 20.7618C11.2511 20.8805 11.159 20.9732 11.0458 20.9732C10.9317 20.9732 10.8394 20.8802 10.8358 20.7626L10.6816 18.3484L10.8358 13.2927C10.8395 13.174 10.9318 13.0811 11.046 13.0811C11.1593 13.0811 11.2514 13.1738 11.256 13.2924L11.4297 18.3487L11.2557 20.7618Z" fill="white"/>
<path d="M15.113 20.6943C15.1101 20.8544 14.9815 20.9847 14.8256 20.9847C14.6696 20.9847 14.5406 20.8544 14.5381 20.6957C14.5381 20.6957 14.4297 18.3521 14.4297 18.3484L14.5381 12.5109C14.5405 12.3505 14.6694 12.2202 14.8256 12.2202C14.9815 12.2202 15.1103 12.3508 15.113 12.5107L15.2343 18.3503L15.113 20.6943Z" fill="white"/>
<path d="M13.1702 20.7238C13.1665 20.8647 13.0571 20.9752 12.9214 20.9752C12.7848 20.9752 12.6755 20.8647 12.6725 20.7253L12.541 18.3493L12.6723 13.2561C12.6752 13.1152 12.7846 13.0049 12.9213 13.0049C13.0569 13.0049 13.1662 13.1152 13.1699 13.2561L13.3178 18.349L13.1702 20.7255V20.7238Z" fill="white"/>
<path d="M8.4418 20.8014C8.43568 20.8877 8.37041 20.9532 8.28974 20.9532C8.20794 20.9532 8.14293 20.8877 8.13751 20.8011L7.94922 18.3465L8.13751 16.0123C8.14267 15.9255 8.20794 15.8599 8.28974 15.8599C8.37067 15.8599 8.43594 15.925 8.4418 16.0112L8.65564 18.3465L8.4418 20.8014Z" fill="white"/>
<path d="M6.60058 20.7063C6.59376 20.7716 6.54601 20.8188 6.48708 20.8188C6.42714 20.8188 6.37939 20.7713 6.37354 20.7059L6.16211 18.3461L6.37354 15.8969C6.37963 15.8317 6.42736 15.7842 6.48706 15.7842C6.546 15.7842 6.59374 15.8315 6.60081 15.8969L6.84076 18.3461L6.60058 20.7063Z" fill="white"/>
<path d="M13.6002 13.4426C13.6032 13.2903 13.7213 13.1714 13.8687 13.1714C14.0158 13.1714 14.1332 13.2903 14.1366 13.4421L14.2711 18.3499L14.1366 20.7111V20.7091C14.1332 20.8613 14.0158 20.98 13.8687 20.98C13.7211 20.98 13.6032 20.8611 13.6002 20.7108L13.4805 18.3497L13.6002 13.4426Z" fill="white"/>
<path d="M10.311 20.7861C10.3061 20.8936 10.2221 20.978 10.1203 20.978C10.0175 20.978 9.93367 20.8936 9.92955 20.7871L9.76367 18.3481L9.92929 13.6815C9.93375 13.574 10.0175 13.4897 10.1203 13.4897C10.2221 13.4897 10.3059 13.5737 10.311 13.6815L10.4981 18.3481L10.311 20.7861Z" fill="white"/>
<path d="M12.2088 20.7479V20.7476C12.2044 20.8765 12.1041 20.9778 11.9796 20.9778C11.8547 20.9778 11.7538 20.8761 11.7504 20.7477L11.6074 18.3486L11.7502 13.1222C11.7535 12.9922 11.8544 12.8906 11.9796 12.8906C12.1041 12.8906 12.2049 12.9924 12.2088 13.1222L12.3696 18.3489L12.2088 20.7466V20.7476C12.2088 20.7473 12.2088 20.7471 12.2088 20.7469V20.7479Z" fill="white"/>
<path d="M23.2917 15.5556C23.6235 15.4145 23.9877 15.3362 24.3694 15.3362C25.9079 15.3362 27.1551 16.6022 27.1551 18.1638C27.1551 19.7253 25.9077 20.9912 24.3692 20.9912C24.3194 20.9912 16.6536 20.9873 16.6465 20.9865C16.4801 20.9694 16.3479 20.8253 16.3457 20.6523V11.6792C16.3477 11.5143 16.4037 11.4293 16.6139 11.3467C17.1549 11.1344 17.7676 11.0088 18.396 11.0088C20.9645 11.0088 23.07 13.0076 23.2917 15.5556Z" fill="white"/>
<path d="M15.4675 11.982C15.47 11.8108 15.6074 11.6714 15.7747 11.6714C15.9416 11.6714 16.0789 11.8108 16.0814 11.9816L16.218 18.351L16.0814 20.6628V20.66C16.0789 20.8314 15.9416 20.9705 15.7747 20.9705C15.6074 20.9705 15.47 20.8314 15.4678 20.6625L15.3418 18.351L15.4675 11.982Z" fill="white"/>
</g>
<defs>
<linearGradient id="paint0_linear_82801_314" x1="15.8296" y1="0" x2="15.8296" y2="32" gradientUnits="userSpaceOnUse">
<stop stop-color="#FF7602"/>
<stop offset="1" stop-color="#FF3502"/>
</linearGradient>
<clipPath id="clip0_82801_314">
<rect width="32" height="32" fill="white"/>
</clipPath>
</defs>
</svg>
