<svg width="32" height="32" viewBox="0 0 32 32" fill="none" xmlns="http://www.w3.org/2000/svg">
<g clip-path="url(#clip0_82801_294)">
<path fill-rule="evenodd" clip-rule="evenodd" d="M31.3672 27.7357C31.0561 28.5258 30.3384 29.6383 29.3205 30.4219C28.7329 30.8745 28.0313 31.3072 27.0676 31.5927C26.0403 31.8971 24.7749 32 23.2 32H8.8001C7.22534 32 5.95999 31.8971 4.93258 31.5927C3.96888 31.3072 3.2674 30.8745 2.67962 30.4219C1.66187 29.6382 0.943989 28.5258 0.632929 27.7357C0.00635821 26.1438 0 24.3376 0 23.2V8.79997C0 7.66243 0.00635821 5.85622 0.632929 4.26429C0.943989 3.47418 1.66174 2.36169 2.67962 1.57806C3.26727 1.12546 3.96888 0.692826 4.93258 0.407328C5.95986 0.102881 7.22521 0 8.8001 0H23.2002C24.7749 0 26.0403 0.102881 27.0677 0.407328C28.0314 0.692826 28.7329 1.12559 29.3206 1.57806C30.3384 2.36182 31.0563 3.47418 31.3673 4.26429C31.9939 5.85622 32.0003 7.66243 32.0003 8.79997V23.2C32.0001 24.3375 31.9938 26.1437 31.3672 27.7357Z" fill="url(#paint0_linear_82801_294)"/>
<path d="M18.3216 18.3932C17.8414 17.8866 16.998 17.5618 16.0023 17.5618C15.0066 17.5618 14.1632 17.8866 13.683 18.3932C13.4325 18.6576 13.3 18.9286 13.2582 19.3147C13.1774 20.0624 13.2228 20.7061 13.3104 21.7353C13.3938 22.716 13.5523 24.0239 13.759 25.3559C13.9062 26.3038 14.0257 26.8154 14.1346 27.1818C14.3111 27.7755 14.9707 28.2948 16.0023 28.2948C17.0338 28.2948 17.6935 27.7754 17.87 27.1818C17.9788 26.8154 18.0984 26.3038 18.2455 25.3559C18.4523 24.0239 18.6107 22.716 18.6942 21.7353C18.7818 20.706 18.8272 20.0622 18.7463 19.3147C18.7046 18.9288 18.5721 18.6576 18.3216 18.3932ZM13.3859 13.8821C13.3859 15.3284 14.5584 16.5009 16.0048 16.5009C17.4512 16.5009 18.6237 15.3284 18.6237 13.8821C18.6237 12.4357 17.4512 11.2632 16.0048 11.2632C14.5584 11.2632 13.3859 12.4357 13.3859 13.8821ZM15.9723 3.54692C9.84742 3.56435 4.82863 8.53329 4.75283 14.6579C4.69128 19.6192 7.85835 23.8631 12.2807 25.4187C12.388 25.4564 12.497 25.3673 12.4801 25.2548C12.4221 24.8695 12.3674 24.4824 12.3172 24.1018C12.2994 23.9673 12.2137 23.8513 12.0894 23.797C8.59404 22.2699 6.15324 18.7643 6.19241 14.7036C6.24378 9.37465 10.5953 5.03024 15.9243 4.98713C21.3721 4.94313 25.8181 9.36207 25.8181 14.7999C25.8181 18.8199 23.388 22.2825 19.9198 23.7974C19.7956 23.8517 19.7104 23.968 19.6927 24.1025C19.6425 24.4829 19.5878 24.8699 19.5299 25.2548C19.5129 25.3673 19.6219 25.4564 19.7292 25.4188C24.1093 23.8781 27.258 19.7002 27.258 14.8C27.2577 8.58403 22.1921 3.52912 15.9723 3.54692ZM15.769 8.70942C19.2411 8.575 22.1086 11.3606 22.1086 14.8033C22.1086 16.5542 21.3668 18.135 20.1812 19.2482C20.0806 19.3426 20.0265 19.4766 20.0343 19.6143C20.0579 20.0331 20.0493 20.4401 20.0214 20.8997C20.0139 21.0221 20.1513 21.1003 20.2526 21.0313C22.2408 19.6726 23.5485 17.388 23.5485 14.8033C23.5485 10.5477 20.0038 7.10427 15.7119 7.27061C11.7233 7.42525 8.52332 10.7138 8.4722 14.7052C8.43862 17.3302 9.75433 19.6558 11.7681 21.0315C11.8692 21.1006 12.0061 21.0223 11.9986 20.8999C11.9706 20.4401 11.9621 20.0331 11.9856 19.6143C11.9934 19.4767 11.9395 19.3427 11.8391 19.2485C10.6165 18.1006 9.86574 16.4557 9.91355 14.6397C9.99774 11.4439 12.5743 8.83316 15.769 8.70942Z" fill="white"/>
</g>
<defs>
<linearGradient id="paint0_linear_82801_294" x1="16.0001" y1="0" x2="16.0001" y2="32" gradientUnits="userSpaceOnUse">
<stop stop-color="#F452FF"/>
<stop offset="1" stop-color="#832BC1"/>
</linearGradient>
<clipPath id="clip0_82801_294">
<rect width="32" height="32" fill="white"/>
</clipPath>
</defs>
</svg>
