<svg width="32" height="32" viewBox="0 0 32 32" fill="none" xmlns="http://www.w3.org/2000/svg">
<g clip-path="url(#clip0_82801_299)">
<path d="M15.9375 30C23.704 30 30 23.704 30 15.9375C30 8.171 23.704 1.875 15.9375 1.875C8.171 1.875 1.875 8.171 1.875 15.9375C1.875 23.704 8.171 30 15.9375 30Z" fill="white" stroke="#363F46" stroke-width="2.42578" stroke-linecap="round"/>
<path d="M8.30401 9.99902C8.30401 9.99902 6.35938 12.1928 6.35938 16.0258C6.35938 19.8588 8.30401 21.9642 8.30401 21.9642" fill="white"/>
<path d="M8.30401 9.99902C8.30401 9.99902 6.35938 12.1928 6.35938 16.0258C6.35938 19.8588 8.30401 21.9642 8.30401 21.9642" stroke="#FC7E0F" stroke-width="2.42578" stroke-linecap="round"/>
<path d="M23.7969 9.99902C23.7969 9.99902 25.7415 12.1928 25.7415 16.0258C25.7415 19.8588 23.7969 21.9642 23.7969 21.9642" fill="white"/>
<path d="M23.7969 9.99902C23.7969 9.99902 25.7415 12.1928 25.7415 16.0258C25.7415 19.8588 23.7969 21.9642 23.7969 21.9642" stroke="#FC7E0F" stroke-width="2.42578" stroke-linecap="round"/>
<path d="M20.6934 12.5625C20.6934 12.5625 22.0033 14.1938 21.9711 16.0179C21.9309 18.2116 20.7095 19.417 20.7095 19.417" fill="white"/>
<path d="M20.6934 12.5625C20.6934 12.5625 22.0033 14.1938 21.9711 16.0179C21.9309 18.2116 20.7095 19.417 20.7095 19.417" stroke="#FC7E0F" stroke-width="2.42578" stroke-linecap="round"/>
<path d="M11.3408 12.5625C11.3408 12.5625 10.0309 14.1938 10.0631 16.0179C10.1033 18.2116 11.3247 19.417 11.3247 19.417" fill="white"/>
<path d="M11.3408 12.5625C11.3408 12.5625 10.0309 14.1938 10.0631 16.0179C10.1033 18.2116 11.3247 19.417 11.3247 19.417" stroke="#FC7E0F" stroke-width="2.42578" stroke-linecap="round"/>
<path d="M15.9349 18.1206C17.1404 18.1206 18.1177 17.1433 18.1177 15.9377C18.1177 14.7322 17.1404 13.7549 15.9349 13.7549C14.7293 13.7549 13.752 14.7322 13.752 15.9377C13.752 17.1433 14.7293 18.1206 15.9349 18.1206Z" fill="#363F46"/>
<path d="M16.3047 17.9767L14.7562 17.5605L12.1777 27.1924L13.7262 27.6085L16.3047 17.9767Z" fill="#363F46"/>
<path d="M15.7051 17.964L17.2467 17.5547L19.8116 27.1934L18.2699 27.6027L15.7051 17.964Z" fill="#363F46"/>
<path d="M14.2734 23.1618L14.8464 22.5752L18.8164 26.4429L18.2434 27.0296L14.2734 23.1618Z" fill="#363F46"/>
<path d="M17.636 23.1825L17.1175 22.6572L13.1816 26.5659L13.7 27.0912L17.636 23.1825Z" fill="#363F46"/>
</g>
<defs>
<clipPath id="clip0_82801_299">
<rect width="32" height="32" fill="white"/>
</clipPath>
</defs>
</svg>
