<svg width="32" height="32" viewBox="0 0 32 32" fill="none" xmlns="http://www.w3.org/2000/svg">
<g clip-path="url(#clip0_82801_290)">
<path d="M15.6602 30C23.3921 30 29.6602 23.732 29.6602 16C29.6602 8.26801 23.3921 2 15.6602 2C7.92817 2 1.66016 8.26801 1.66016 16C1.66016 23.732 7.92817 30 15.6602 30Z" fill="white"/>
<path d="M16.1873 0C7.6116 0 0.660156 7.16334 0.660156 16C0.660156 24.8366 7.6116 32 16.1873 32C24.7631 32 31.7145 24.8366 31.7145 16C31.7145 7.16334 24.7631 0 16.1873 0ZM20.9973 16.148C20.9973 13.4927 18.9082 11.3397 16.3309 11.3397C13.7541 11.3397 11.665 13.4923 11.665 16.148C11.665 18.8033 13.7541 20.9559 16.3309 20.9559V23.7036C12.2816 23.7036 8.99848 20.321 8.99848 16.148C8.99848 11.9751 12.2812 8.5924 16.3309 8.5924C20.3807 8.5924 23.6635 11.9751 23.6635 16.148H20.9973ZM25.4965 16.148C25.4965 10.9321 21.3932 6.7036 16.3309 6.7036C11.2692 6.7036 7.16581 10.9321 7.16581 16.148C7.16581 21.3638 11.2692 25.592 16.3309 25.592V28.7404C9.58195 28.7404 4.11039 23.1024 4.11039 16.148C4.11039 9.19327 9.58195 3.5556 16.3309 3.5556C23.0803 3.5556 28.5516 9.19327 28.5516 16.148H25.4965Z" fill="#F43E37"/>
</g>
<defs>
<clipPath id="clip0_82801_290">
<rect width="32" height="32" fill="white"/>
</clipPath>
</defs>
</svg>
