<svg width="32" height="32" viewBox="0 0 32 32" fill="none" xmlns="http://www.w3.org/2000/svg">
<g clip-path="url(#clip0_82801_297)">
<path d="M15.9999 0.0527344C7.19054 0.0527344 0.0488281 7.19426 0.0488281 16.0036C0.0488281 24.8133 7.19054 31.9543 15.9999 31.9543C24.8102 31.9543 31.9511 24.8133 31.9511 16.0036C31.9511 7.19483 24.8102 0.0534963 15.9997 0.0534963L15.9999 0.0527344ZM23.3149 23.0584C23.0292 23.527 22.4159 23.6756 21.9473 23.388C18.2022 21.1004 13.4875 20.5823 7.93512 21.8508C7.40007 21.9727 6.86673 21.6375 6.74483 21.1023C6.62235 20.567 6.95626 20.0337 7.49264 19.9118C13.5688 18.523 18.7808 19.1213 22.9854 21.6908C23.454 21.9784 23.6026 22.5899 23.3149 23.0584ZM25.2673 18.7146C24.9073 19.3004 24.1416 19.4851 23.5568 19.1251C19.2692 16.4891 12.7334 15.7259 7.66197 17.2653C7.00426 17.464 6.30959 17.0933 6.10997 16.4367C5.91188 15.779 6.28273 15.0857 6.93931 14.8857C12.7323 13.128 19.934 13.9794 24.8578 17.0051C25.4426 17.3651 25.6273 18.1308 25.2673 18.7148V18.7146ZM25.4349 14.192C20.294 11.1384 11.8121 10.8577 6.90369 12.3474C6.1155 12.5864 5.28197 12.1415 5.04312 11.3533C4.80426 10.5647 5.24883 9.73178 6.03759 9.49216C11.6721 7.78169 21.0387 8.11216 26.9576 11.6259C27.6681 12.0466 27.9005 12.9623 27.4795 13.6703C27.0605 14.3792 26.1424 14.6129 25.4357 14.192H25.4349Z" fill="#1ED760"/>
</g>
<defs>
<clipPath id="clip0_82801_297">
<rect width="32" height="32" fill="white"/>
</clipPath>
</defs>
</svg>
